<svg viewBox="0 0 900 600" xmlns="http://www.w3.org/2000/svg">
  <path d="M 813.6,457.9 L 847.1,427.7 L 848.3,418.7 L 850.0,403.9 L 842.7,380.7 L 838.3,369.6 L 829.6,341.4 L 823.5,324.3 L 802.1,330.4 L 760.9,310.7 L 699.0,311.1 L 663.8,311.7 L 659.4,312.5 L 644.9,314.8 L 638.8,322.9 L 615.3,310.4 L 597.7,316.0 L 512.0,311.9 L 477.1,315.0 L 466.0,332.9 L 453.2,314.8 L 415.8,307.5 L 327.6,295.4 L 292.8,277.6 L 286.3,263.6 L 245.9,262.8 L 212.8,282.7 L 199.1,266.0 L 174.9,235.4 L 121.7,231.1 L 87.6,228.5 L 80.7,225.8 L 65.0,218.8 L 61.9,219.2 L 51.8,225.7 L 50.0,230.1 L 63.3,218.9 L 64.7,210.9 L 70.7,199.1 L 99.8,202.4 L 116.3,191.9 L 116.8,172.0 L 110.3,167.3 L 125.0,157.9 L 132.9,151.3 L 141.1,142.3 L 143.1,144.1 L 143.5,145.3 L 149.3,142.1 L 155.4,146.6 L 165.4,145.3 L 172.0,153.6 L 185.0,149.9 L 184.8,154.3 L 188.7,175.0 L 183.8,191.6" fill="none" stroke="#5C3317" stroke-width="4" stroke-linecap="round" stroke-linejoin="round" stroke-dasharray="1,14" />
  <path d="M 813.6,457.9 L 847.1,427.7 L 848.3,418.7 L 850.0,403.9 L 842.7,380.7 L 838.3,369.6 L 829.6,341.4 L 823.5,324.3 L 802.1,330.4 L 760.9,310.7 L 699.0,311.1 L 663.8,311.7 L 659.4,312.5 L 644.9,314.8 L 638.8,322.9 L 615.3,310.4 L 597.7,316.0 L 512.0,311.9 L 477.1,315.0 L 466.0,332.9 L 453.2,314.8 L 415.8,307.5 L 327.6,295.4 L 292.8,277.6 L 286.3,263.6 L 245.9,262.8 L 212.8,282.7 L 199.1,266.0 L 174.9,235.4 L 121.7,231.1 L 87.6,228.5 L 80.7,225.8 L 65.0,218.8 L 61.9,219.2 L 51.8,225.7 L 50.0,230.1 L 63.3,218.9 L 64.7,210.9 L 70.7,199.1 L 99.8,202.4 L 116.3,191.9 L 116.8,172.0 L 110.3,167.3 L 125.0,157.9 L 132.9,151.3 L 141.1,142.3 L 143.1,144.1 L 143.5,145.3 L 149.3,142.1 L 155.4,146.6 L 165.4,145.3 L 172.0,153.6 L 185.0,149.9 L 184.8,154.3 L 188.7,175.0 L 183.8,191.6" fill="none" stroke="#5C3317" stroke-width="1.5" stroke-linecap="round" stroke-linejoin="round" opacity="0.5" />
  <circle cx="813.6" cy="457.9" r="7" fill="#5C3317" /><circle cx="183.8" cy="191.6" r="7" fill="#5C3317" />
</svg>