<svg viewBox="0 0 900 600" xmlns="http://www.w3.org/2000/svg">
  <path d="M 448.3,550.0 L 461.1,475.6 L 439.9,453.8 L 422.5,460.5 L 408.1,440.9 L 387.0,443.7 L 373.0,433.4 L 355.1,433.7 L 385.1,426.1 L 423.7,408.7 L 466.3,367.2 L 529.8,365.4 L 544.9,350.9 L 543.0,341.4 L 517.1,326.3 L 487.0,290.3 L 450.2,257.0 L 435.5,233.5 L 437.3,221.8 L 431.6,177.6 L 430.2,136.8 L 411.8,97.3 L 436.2,50.0" fill="none" stroke="#4a7c59" stroke-width="4" stroke-linecap="round" stroke-linejoin="round" stroke-dasharray="1,14" />
  <path d="M 448.3,550.0 L 461.1,475.6 L 439.9,453.8 L 422.5,460.5 L 408.1,440.9 L 387.0,443.7 L 373.0,433.4 L 355.1,433.7 L 385.1,426.1 L 423.7,408.7 L 466.3,367.2 L 529.8,365.4 L 544.9,350.9 L 543.0,341.4 L 517.1,326.3 L 487.0,290.3 L 450.2,257.0 L 435.5,233.5 L 437.3,221.8 L 431.6,177.6 L 430.2,136.8 L 411.8,97.3 L 436.2,50.0" fill="none" stroke="#4a7c59" stroke-width="1.5" stroke-linecap="round" stroke-linejoin="round" opacity="0.5" />
  <circle cx="448.3" cy="550.0" r="7" fill="#4a7c59" /><circle cx="436.2" cy="50.0" r="7" fill="#4a7c59" />
</svg>